<svg id="Ebene_1" data-name="Ebene 1" xmlns="http://www.w3.org/2000/svg" viewBox="0 0 410.15 95.96"><defs><style>.cls-1{fill:#f3f3f3;}</style></defs><title>Ship</title><path class="cls-1" d="M0,92.68v-1c0.23-.52,6.2-26.15,8.92-38.44,0.85-3.85,1.85-4.73,5.71-4.8,7.91-.16,31.79-0.68,35.83-0.9a3,3,0,0,0,2-1.08Q65.34,27.89,78.08,9.28a5.81,5.81,0,0,1,5-2.64c13.15-.29,253.15-5.8,254.87-5.8,2.35,0.9,3.45,2.74,4.3,5,4.15,11.18,8.45,22.3,12.67,33.45,0.54,1.42,1,2.53,3,2.47,14.87-.39,29.73-0.65,44.6-1,2.64-.06,5.32-0.43,7.66,1.28v1c-0.35.48-.73,0.94-1,1.45C400.33,59.33,391.48,74,382.78,88.82c-2.13,3.63-4.2,7.07-8.71,8-5,0-346.27-2.22-368.71-2.27C3.35,94.53,1.37,94.55,0,92.68Z" transform="translate(-0.03 -0.85)"/></svg>